<svg width="66" height="66" viewBox="0 0 66 66" fill="none" xmlns="http://www.w3.org/2000/svg">
<path d="M33.105 32.895C25.4322 32.895 18.9971 38.1377 17.1715 45.2307H25.9873C27.4141 42.7759 30.0745 41.1188 33.105 41.1188C36.1395 41.1188 38.7958 42.7759 40.2226 45.2307H49.0385C47.2128 38.1377 40.7654 32.895 33.105 32.895ZM20.7693 28.7831C23.0432 28.7831 24.8812 26.9451 24.8812 24.6713C24.8812 22.3974 23.0432 20.5594 20.7693 20.5594C18.4955 20.5594 16.6575 22.3974 16.6575 24.6713C16.6575 26.9451 18.4955 28.7831 20.7693 28.7831ZM33.105 0C14.9346 0 0.209961 14.7246 0.209961 32.895C0.209961 51.0654 14.9346 65.79 33.105 65.79C51.2754 65.79 66 51.0654 66 32.895C66 14.7246 51.2754 0 33.105 0ZM50.5558 50.3458C45.8888 54.9964 39.6963 57.5663 33.105 57.5663C26.5136 57.5663 20.3212 54.9964 15.6542 50.3458C11.0036 45.6788 8.43372 39.4864 8.43372 32.895C8.43372 26.3037 11.0036 20.1112 15.6542 15.4442C20.3212 10.7937 26.5136 8.22375 33.105 8.22375C39.6963 8.22375 45.8888 10.7937 50.5558 15.4442C55.2063 20.1112 57.7762 26.3037 57.7762 32.895C57.7762 39.4864 55.2063 45.6788 50.5558 50.3458ZM45.4406 20.5594C43.1667 20.5594 41.3287 22.3974 41.3287 24.6713C41.3287 26.9451 43.1667 28.7831 45.4406 28.7831C47.7145 28.7831 49.5525 26.9451 49.5525 24.6713C49.5525 22.3974 47.7145 20.5594 45.4406 20.5594Z" fill="#FF0A0A" fill-opacity="0.8"/>
</svg>
